<?xml version="1.0" standalone="no"?>
<!DOCTYPE svg PUBLIC "-//W3C//DTD SVG 20010904//EN"
 "http://www.w3.org/TR/2001/REC-SVG-20010904/DTD/svg10.dtd">
<svg version="1.0" xmlns="http://www.w3.org/2000/svg"
 width="2560.000000pt" height="1440.000000pt" viewBox="0 0 2560.000000 1440.000000"
 preserveAspectRatio="xMidYMid meet">

<g transform="translate(0.000000,1440.000000) scale(0.100000,-0.100000)"
fill="#E50914" stroke="none">
<path d="M2370 6837 c0 -1537 2 -2796 5 -2798 2 -3 174 18 382 47 208 28 404
55 436 58 l57 7 1 1517 c0 1236 3 1511 13 1487 7 -16 235 -669 506 -1450 272
-781 495 -1421 496 -1423 1 -2 193 17 426 42 232 26 449 49 481 53 l57 6 0
2623 0 2624 -440 0 -440 0 -2 -1576 -3 -1575 -529 1468 c-291 807 -547 1516
-569 1576 l-39 107 -419 0 -419 0 0 -2793z"/>
<path d="M6070 7047 l0 -2582 318 27 c634 55 1620 126 1985 144 l137 7 0 434
c0 287 -3 433 -10 433 -26 0 -824 -53 -1065 -70 -148 -11 -308 -22 -355 -25
-47 -4 -95 -8 -107 -11 l-23 -4 0 653 0 654 137 6 c75 4 342 7 595 7 l458 0
-2 433 -3 432 -592 -4 -593 -4 0 591 0 592 780 0 780 0 0 435 0 435 -1220 0
-1220 0 0 -2583z"/>
<path d="M9070 9195 l0 -435 460 0 460 0 0 -2022 0 -2021 208 6 c114 4 312 10
440 13 l232 7 0 2009 0 2008 460 0 460 0 0 435 0 435 -1360 0 -1360 0 0 -435z"/>
<path d="M12350 7200 l0 -2430 440 0 440 0 0 995 0 995 595 0 595 0 0 435 0
435 -595 0 -595 0 0 565 0 565 785 0 785 0 0 435 0 435 -1225 0 -1225 0 0
-2430z"/>
<path d="M15362 7178 l3 -2453 300 -12 c620 -24 1394 -64 1880 -97 105 -7 193
-11 198 -9 4 2 7 197 7 432 l0 428 -87 7 c-148 11 -904 54 -1170 67 l-253 12
0 2039 0 2038 -440 0 -440 0 2 -2452z"/>
<path d="M18470 7091 l0 -2539 78 -6 c42 -4 237 -20 434 -36 196 -17 359 -30
362 -30 3 0 6 1159 6 2575 l0 2575 -440 0 -440 0 0 -2539z"/>
<path d="M20100 9626 c0 -2 227 -590 505 -1306 278 -716 505 -1310 505 -1319
0 -9 -248 -591 -551 -1295 -403 -933 -549 -1280 -539 -1286 6 -4 49 -10 95
-14 46 -4 246 -24 446 -45 200 -22 365 -38 365 -37 1 0 142 327 314 726 172
399 317 734 322 744 8 16 12 17 18 5 5 -8 148 -376 320 -819 172 -443 313
-806 315 -808 2 -2 203 -30 447 -63 243 -33 467 -63 496 -68 51 -8 53 -7 48
13 -3 12 -258 671 -566 1466 -309 795 -561 1452 -562 1460 0 8 252 599 560
1314 309 714 564 1307 567 1317 6 18 -9 19 -473 19 l-479 0 -12 -27 c-7 -16
-148 -340 -313 -722 -164 -382 -302 -699 -305 -704 -3 -5 -9 -3 -13 4 -4 8
-133 337 -285 732 l-278 717 -474 0 c-260 0 -473 -2 -473 -4z"/>
</g>
</svg>
